<?xml version="1.0" encoding="UTF-8" standalone="no"?>
<!-- Created with Inkscape (http://www.inkscape.org/) -->

<svg
   width="280mm"
   height="280mm"
   viewBox="0 0 280 280"
   version="1.1"
   id="svg5"
   inkscape:version="1.1.1 (3bf5ae0d25, 2021-09-20)"
   sodipodi:docname="logo.svg"
   xmlns:inkscape="http://www.inkscape.org/namespaces/inkscape"
   xmlns:sodipodi="http://sodipodi.sourceforge.net/DTD/sodipodi-0.dtd"
   xmlns="http://www.w3.org/2000/svg"
   xmlns:svg="http://www.w3.org/2000/svg">
  <sodipodi:namedview
     id="namedview7"
     pagecolor="#ffffff"
     bordercolor="#666666"
     borderopacity="1.0"
     inkscape:pageshadow="2"
     inkscape:pageopacity="0.0"
     inkscape:pagecheckerboard="0"
     inkscape:document-units="mm"
     showgrid="false"
     fit-margin-top="0"
     fit-margin-left="0"
     fit-margin-right="0"
     fit-margin-bottom="0"
     inkscape:zoom="0.3888961"
     inkscape:cx="552.84689"
     inkscape:cy="570.84655"
     inkscape:window-width="1366"
     inkscape:window-height="719"
     inkscape:window-x="0"
     inkscape:window-y="25"
     inkscape:window-maximized="1"
     inkscape:current-layer="layer1" />
  <defs
     id="defs2" />
  <g
     inkscape:label="Vrstva 1"
     inkscape:groupmode="layer"
     id="layer1"
     transform="translate(-30.165355,103.67005)">
    <path
       style="fill:#096a2e;fill-opacity:1;stroke-width:0.352778"
       d="m 66.49009,145.20145 c -4.024404,-2.97996 -7.603905,-7.73707 -9.055029,-12.034 -0.772441,-2.28729 -0.774672,-2.37737 -0.885809,-35.770245 -0.111418,-33.47718 -0.111418,-33.47718 0.853205,-34.48402 0.936375,-0.97737 1.069132,-1.00685 4.533582,-1.00685 3.568965,0 3.568965,0 4.696499,1.16332 1.021965,1.0544 1.127538,1.3682 1.127538,3.35139 0,2.18806 0,2.18806 19.395397,2.18806 19.395407,0 19.395407,0 25.432937,7.23195 3.32064,3.97757 6.09223,7.23194 6.1591,7.23194 0.0669,0 1.20298,-0.25379 2.52471,-0.56399 1.83536,-0.43074 3.6117,-0.52605 7.51841,-0.40339 5.67328,0.17811 7.95946,0.78168 11.84565,3.12738 2.48713,1.50122 7.4133,6.57725 8.85938,9.12889 3.48287,6.145595 3.85982,16.356975 0.84188,22.806165 -2.96189,6.32941 -10.02747,12.2212 -16.1844,13.49574 -2.86926,0.59396 -11.03271,0.49059 -13.60186,-0.17223 -3.87784,-1.00045 -6.79142,-2.80516 -10.46814,-6.48407 -5.32774,-5.33092 -7.03303,-9.56799 -7.03303,-17.47477 0,-6.35782 1.29207,-10.502675 4.64,-14.884655 1.39959,-1.83187 1.39959,-1.83187 -2.89546,-6.96736 -4.29504,-5.13549 -4.29504,-5.13549 -20.67417,-5.13549 -16.37913,0 -16.37913,0 -16.281573,24.253485 0.09756,24.25346 0.09756,24.25346 1.081741,26.35525 1.909843,4.07858 4.040169,5.93884 8.313395,7.25948 2.177475,0.67296 3.505365,0.6929 46.125697,0.6929 43.88368,0 43.88368,0 43.88235,-15.08126 -10e-4,-15.08123 -10e-4,-15.08123 -1.64169,-15.75595 -2.46865,-1.01541 -6.23397,-4.75442 -7.6154,-7.562195 -1.13624,-2.3094 -1.14853,-2.38917 -1.14853,-7.45568 0,-4.843 0.0524,-5.23324 0.96496,-7.18109 1.26915,-2.7091 5.03207,-6.46688 7.85449,-7.84374 2.04331,-0.9968 2.29394,-1.03258 7.23194,-1.03258 4.94112,0 5.18688,0.0352 7.21837,1.03259 2.75558,1.35296 6.44747,5.04485 7.80043,7.80043 0.99743,2.03148 1.03259,2.27725 1.03259,7.21836 0,4.85025 -0.0506,5.22324 -0.97587,7.1989 -1.24314,2.654295 -5.40955,6.846565 -7.76882,7.817045 -1.65961,0.68268 -1.65961,0.68268 -1.66093,15.76391 -10e-4,15.08126 -10e-4,15.08126 11.64034,15.08126 11.64167,0 11.64167,0 11.64167,-19.32664 0,-22.157775 -1.07758,-18.899345 9.04897,-27.362695 5.34481,-4.46696 5.34481,-4.46696 4.82869,-6.1409 -0.72471,-2.35044 -0.99917,-8.89037 -0.50545,-12.04403 0.56085,-3.58244 2.22621,-7.41402 4.15471,-9.55898 1.58846,-1.76675 1.58846,-1.76675 5.89949,-1.76675 4.26282,0 4.32163,0.0111 5.25898,0.98944 0.7715,0.80527 0.94794,1.31913 0.94794,2.76073 0,1.43683 -0.1678,1.92893 -0.8887,2.60618 -1.33836,1.25731 -2.90097,3.85783 -3.72293,6.19574 -1.03673,2.94875 -0.78826,5.69211 0.82279,9.08454 1.55729,3.2792 3.05642,4.77395 6.48972,6.47078 2.43613,1.204 3.01787,1.34953 5.39471,1.34953 2.3347,0 2.99534,-0.15817 5.34265,-1.27917 3.38108,-1.61468 5.01096,-3.24456 6.62565,-6.62564 1.14586,-2.39938 1.27806,-2.97264 1.26854,-5.50075 -0.009,-2.40825 -0.17188,-3.16685 -1.11001,-5.17174 -0.60467,-1.29224 -1.75083,-3.05624 -2.54702,-3.92001 -1.28859,-1.39795 -1.44762,-1.76236 -1.44762,-3.317109 0,-1.45317 0.16624,-1.905901 0.98944,-2.694581 0.96207,-0.92171 1.10724,-0.94794 5.24674,-0.94794 4.25729,0 4.25729,0 5.74349,1.61233 2.97791,3.23065 4.58392,8.25191 4.59476,14.36573 0.008,4.44247 -0.77242,8.21922 -2.38394,11.5386 -1.0057,2.07153 -2.01518,3.37982 -4.6507,6.02732 -4.07872,4.09726 -7.51142,6.010845 -12.36201,6.891285 -3.60419,0.6542 -9.77412,0.45193 -12.7,-0.41634 -2.4898,-0.73887 -6.13891,-2.658395 -7.92035,-4.166315 -1.39396,-1.17994 -1.39396,-1.17994 -6.4382,3.048525 -5.04423,4.22846 -5.04423,4.22846 -5.04423,20.77314 0,16.5447 0,16.5447 23.90069,16.44702 23.9007,-0.0977 23.9007,-0.0977 25.94057,-0.92105 2.83417,-1.14396 4.81491,-2.75207 6.17331,-5.01191 2.28457,-3.80063 2.19376,-2.28275 2.19376,-36.669275 0,-31.26399 0,-31.26399 1.16332,-32.39153 1.15112,-1.11571 1.2004,-1.12753 4.6965,-1.12753 3.4251,0 3.56268,0.0308 4.4978,1.00685 0.96462,1.00684 0.96462,1.00684 0.84889,34.48402 -0.12816,37.070305 0.0303,34.507705 -2.43642,39.395355 -1.07786,2.13569 -5.15194,6.71178 -7.5001,8.42427 -1.37585,1.00339 -1.37585,1.00339 -102.86999,1.00339 -101.494143,0 -101.494143,0 -102.86999,-1.01877 z m 64.37315,-25.75143 c 5.45347,-1.6973 8.70942,-5.26228 9.98007,-10.92732 0.71936,-3.20714 -0.69595,-7.71989 -3.41879,-10.900914 -1.47108,-1.718621 -5.40904,-3.79368 -8.17031,-4.30524 -3.06043,-0.56698 -7.72669,1.05224 -10.6542,3.697069 -2.35122,2.12418 -4.38638,6.767745 -4.32661,9.871885 0.0361,1.87426 1.20196,5.17362 2.59561,7.34542 1.34115,2.09 4.3633,4.17437 7.49017,5.16598 2.72643,0.86461 3.86683,0.87392 6.50406,0.0531 z m 44.31648,-22.939355 c 1.37513,-0.77974 2.64703,-2.69029 2.64703,-3.97617 0,-4.80429 -6.09225,-6.93816 -8.88341,-3.1115 -1.19607,1.63981 -1.33851,2.90229 -0.53649,4.75507 0.61507,1.4209 1.01302,1.81882 2.51758,2.5174 1.8589,0.8631 2.4527,0.83731 4.25529,-0.1848 z M 57.702009,55.468135 c 0.102263,-0.43656 1.614541,-8.96937 3.36062,-18.9618 1.74608,-9.99243 3.265547,-18.60462 3.376598,-19.13819 0.201909,-0.97014 0.201909,-0.97014 23.611419,-0.97014 23.409514,0 23.409514,0 23.205374,1.32292 -0.11228,0.7276 -0.23387,1.36188 -0.27021,1.40952 -0.0363,0.0476 -5.21293,-0.46741 -11.503545,-1.14453 -6.290606,-0.67712 -11.516843,-1.23048 -11.613856,-1.22969 -0.09701,7.1e-4 0.623848,0.37409 1.601918,0.82954 1.906463,0.88776 3.287028,2.27997 4.023112,4.05704 0.45779,1.1052 0.45779,1.1052 8.696451,1.1052 8.23866,0 8.23866,0 8.02042,1.14653 -0.12003,0.63059 -0.2687,1.20655 -0.33036,1.27992 -0.0617,0.0734 -3.25551,-0.20445 -7.09743,-0.61736 -9.520196,-1.0232 -8.53197,-1.22249 -8.522674,1.71869 0.0078,2.46944 0.0078,2.46944 7.574624,2.46944 8.27745,0 7.76204,-0.16947 7.0323,2.31226 -0.0747,0.25407 -1.93853,0.17758 -5.87957,-0.24129 -3.173599,-0.33731 -6.427268,-0.68166 -7.230374,-0.76522 -1.460189,-0.15193 -1.460189,-0.15193 -1.825766,1.6524 -0.201069,0.99239 -0.47378,2.08216 -0.606026,2.42171 -0.224451,0.5763 0.26506,0.617361 7.359836,0.617361 7.60029,0 7.60029,0 7.39615,1.322909 -0.11228,0.72761 -0.23852,1.36655 -0.28055,1.41986 -0.042,0.0533 -2.98224,-0.22449 -6.53381,-0.61736 -9.144101,-1.01149 -8.447125,-1.12028 -9.610223,1.50004 -0.535957,1.20746 -0.97252,2.31444 -0.970138,2.45996 0.0025,0.14553 3.70308,0.26459 8.223771,0.26459 8.21944,0 8.21944,0 8.0753,1.23472 -0.17441,1.4939 0.5893,1.46239 -9.40868,0.38818 -7.754217,-0.83315 -7.754217,-0.83315 -9.16149,0.37143 -0.774002,0.66251 -2.285231,1.63576 -3.358282,2.16276 -1.848746,0.90796 -2.260685,0.96402 -7.859144,1.0696 -5.743554,0.10831 -5.912923,0.13288 -6.080062,0.88194 -0.09456,0.4238 -0.41487,2.27866 -0.711803,4.12192 -0.296933,1.84327 -0.619866,3.70858 -0.717631,4.14514 -0.175807,0.78505 -0.243491,0.79375 -6.174976,0.79375 -5.997224,0 -5.997224,0 -5.811293,-0.79375 z m 21.143272,-19.45683 c 1.358896,-0.56778 1.732555,-1.44038 2.34901,-5.48559 0.387621,-2.54357 0.374611,-2.65033 -0.39932,-3.27702 -0.64902,-0.52554 -1.301842,-0.62854 -3.45929,-0.54577 -2.659295,0.10202 -2.659295,0.10202 -3.451436,4.51174 -0.435677,2.42535 -0.801222,4.60816 -0.81232,4.85069 -0.02843,0.62138 4.252767,0.58129 5.773356,-0.0541 z m 27.836699,19.45683 c 0.10606,-0.43656 1.63267,-9.04875 3.39246,-19.13819 1.75979,-10.08944 3.28075,-18.70163 3.37991,-19.13819 0.18028,-0.79375 0.18028,-0.79375 22.23816,-0.79375 22.05788,0 22.05788,0 21.8187,1.32292 -0.13154,0.7276 -0.27188,1.36345 -0.31186,1.413 -0.04,0.0496 -3.70376,-0.30764 -8.14175,-0.79375 -4.43799,-0.48611 -8.33839,-0.88384 -8.66757,-0.88384 -0.41898,0 -0.81985,0.65545 -1.33645,2.18517 -0.40587,1.20184 -0.73794,2.39247 -0.73794,2.64583 0,0.36721 1.85892,0.46067 9.1634,0.46067 9.16341,0 9.16341,0 8.94516,1.14653 -0.12003,0.63059 -0.26741,1.20527 -0.3275,1.27706 -0.0601,0.0718 -4.04572,-0.28615 -8.85696,-0.79543 -4.81124,-0.50928 -8.92552,-0.9252 -9.14284,-0.92428 -0.21731,10e-4 -0.59417,0.71262 -0.83746,1.58155 -0.44234,1.57988 -0.44234,1.57988 -7.00372,1.67569 -6.56138,0.0958 -6.56138,0.0958 -6.82062,1.68332 -0.14258,0.87312 -0.34132,2.02406 -0.44164,2.55764 -0.18241,0.97014 -0.18241,0.97014 5.85108,0.97014 6.0335,0 6.0335,0 5.80785,1.41111 -0.22565,1.41111 -0.22565,1.41111 9.81051,1.41111 10.03616,0 10.03616,0 9.83202,1.32291 -0.11228,0.72761 -0.23633,1.36434 -0.27566,1.41498 -0.0393,0.0506 -4.41257,-0.37672 -9.7183,-0.94966 -5.30572,-0.57293 -9.75459,-0.97506 -9.88638,-0.89362 -0.13178,0.0814 -0.34408,0.82629 -0.47178,1.65521 -0.1277,0.82892 -0.32497,2.02306 -0.43838,2.65365 -0.20619,1.14653 -0.20619,1.14653 9.87842,1.14653 10.08461,0 10.08461,0 9.86636,1.14653 -0.12003,0.63059 -0.27064,1.2085 -0.33468,1.28424 -0.064,0.0757 -5.5578,-0.44045 -12.20836,-1.1471 -6.65055,-0.70665 -13.78045,-1.28455 -15.84422,-1.28424 -3.75231,5.7e-4 -3.75231,5.7e-4 -3.99407,1.67626 -0.13297,0.92163 -0.32695,2.03288 -0.43107,2.46945 -0.18932,0.79375 -0.18932,0.79375 7.25726,0.79375 6.38399,0 7.44658,0.0755 7.44658,0.52916 0,0.45599 1.19627,0.52917 8.64978,0.52917 9.47007,0 8.84647,-0.17754 8.1159,2.31054 -0.0732,0.24925 -2.51372,0.11104 -7.46706,-0.42286 -4.04709,-0.43623 -7.85707,-0.80129 -8.46663,-0.81125 -1.20862,-0.0198 -1.27586,0.10629 -1.72772,3.23874 -0.24081,1.66933 -0.24081,1.66933 8.35316,1.76389 8.59396,0.0945 8.59396,0.0945 8.47209,1.32927 -0.067,0.6791 -0.1734,1.28817 -0.23637,1.3535 -0.11113,0.11528 -13.15516,-1.18177 -15.74775,-1.56591 -1.21045,-0.17934 -1.30389,-0.12474 -1.52734,0.89264 -0.23801,1.08366 -0.23801,1.08366 -13.65378,1.08366 -13.41578,0 -13.41578,0 -13.22294,-0.79375 z m 46.26961,0 c 0.10203,-0.43656 1.61528,-8.96937 3.36278,-18.9618 1.74749,-9.99243 3.27004,-18.61779 3.38344,-19.16746 0.20619,-0.9994 0.20619,-0.9994 11.54881,-0.87995 10.95582,0.11538 11.40278,0.14709 13.10652,0.93012 2.12202,0.97527 3.53351,2.25569 4.4492,4.03604 0.68042,1.32292 0.68042,1.32292 9.49269,1.32292 8.81228,0 8.81228,0 8.81228,1.0694 0,0.58818 -0.2163,1.15241 -0.48066,1.25386 -0.42293,0.16229 -12.42175,-0.9524 -15.76936,-1.46497 -1.25695,-0.19247 -1.25695,-0.19247 -1.23472,2.47228 0.0222,2.66474 0.0222,2.66474 8.22432,2.6657 8.20208,9.5e-4 8.20208,9.5e-4 8.19668,0.97108 -0.003,0.53358 -0.12203,1.13713 -0.26458,1.34123 -0.17863,0.25576 -2.50686,0.12452 -7.49113,-0.42227 -9.32139,-1.02259 -8.76309,-1.03123 -9.01367,0.13938 -0.11422,0.53357 -0.41299,1.64482 -0.66392,2.46944 -0.45625,1.49931 -0.45625,1.49931 7.96206,1.49931 8.41831,0 8.41831,0 8.41291,0.97014 -0.0106,1.90138 0.072,1.89224 -8.65031,0.95711 -4.45568,-0.47771 -8.22423,-0.86864 -8.37455,-0.86874 -0.15032,-1e-4 -0.41086,0.35701 -0.57896,0.79357 -0.1681,0.43656 -0.88118,1.62719 -1.58462,2.64583 -1.27897,1.85209 -1.27897,1.85209 8.42827,1.85209 9.70724,0 9.70724,0 9.70183,0.79375 -0.0126,1.84435 0.0556,1.83841 -9.56884,0.83385 -4.92062,-0.51359 -9.34346,-0.99741 -9.82853,-1.07514 -0.56132,-0.09 -1.26021,0.16183 -1.92245,0.6926 -1.0405,0.83393 -1.0405,0.83393 -0.42294,2.79304 0.61755,1.95912 0.61755,1.95912 10.69985,1.95912 10.0823,0 10.0823,0 9.87484,1.27843 -0.11411,0.70314 -0.25394,1.31353 -0.31075,1.35642 -0.0568,0.0429 -4.36797,-0.38198 -9.58038,-0.94415 -5.21241,-0.56217 -9.53831,-0.96093 -9.6131,-0.88614 -0.0748,0.0748 0.20606,1.27374 0.62412,2.66433 0.7601,2.52833 0.7601,2.52833 9.39467,2.52833 8.63456,0 8.63456,0 8.42711,1.27843 -0.11411,0.70314 -0.2754,1.34637 -0.35842,1.4294 -0.14519,0.14518 -13.11822,-1.11117 -15.16415,-1.46854 -0.94822,-0.16564 -0.986,-0.12218 -0.76572,0.88074 0.23171,1.05497 0.23171,1.05497 -6.30613,1.05497 -6.53783,0 -6.53783,0 -6.85185,-1.14653 -0.17271,-0.630589 -0.84891,-3.32934 -1.50266,-5.99722 -1.18865,-4.85069 -1.18865,-4.85069 -2.51807,-4.85069 -1.53801,0 -1.35816,-0.449179 -2.40119,5.99722 -0.39243,2.42535 -0.79411,4.766911 -0.89264,5.203471 -0.17716,0.784999 -0.24528,0.79375 -6.17636,0.79375 -5.99722,0 -5.99722,0 -5.81172,-0.793751 z m 20.78093,-21.03201 c 1.4228,-0.31053 2.27104,-1.61402 2.75948,-4.24046 0.40478,-2.17655 0.39184,-2.26771 -0.4146,-2.92071 -0.68621,-0.55566 -1.29977,-0.65613 -3.49329,-0.57203 -2.66088,0.10202 -2.66088,0.10202 -3.26952,3.45341 -0.89377,4.92135 -0.99266,4.59295 1.36841,4.54437 1.11566,-0.023 2.48794,-0.14202 3.04952,-0.26458 z m 29.87249,21.2084 c 0.014,-0.33955 1.5636,-9.26923 3.44353,-19.84375 3.41805,-19.22638 3.41805,-19.22638 9.32313,-19.32311 5.45742,-0.0894 5.90466,-0.0493 5.89959,0.52917 -0.003,0.34424 -0.47916,3.245271 -1.0581,6.44672 -0.57893,3.20146 -1.05271,6.098651 -1.05284,6.438191 -2.1e-4,0.55593 0.45059,0.61736 4.53006,0.61736 4.5303,0 4.5303,0 5.67025,-6.61457 0.62697,-3.63802 1.20347,-6.814941 1.2811,-7.059811 0.11104,-0.35027 2.98352,-0.42551 13.46794,-0.35278 13.3268,0.0924 13.3268,0.0924 13.43629,1.41536 0.0602,0.72761 0.0343,1.32292 -0.0576,1.32292 -0.29452,0 -12.35105,-1.39054 -13.67401,-1.5771 -1.27492,-0.17977 -1.27492,-0.17977 -1.67569,1.81583 -0.72697,3.619801 -1.48487,3.289051 7.53672,3.289051 7.9375,0 7.9375,0 7.9375,1.234719 0,0.980901 -0.13876,1.234721 -0.67498,1.234721 -0.74739,0 -12.16918,-1.29717 -14.17675,-1.61005 -1.26979,-0.1979 -1.26979,-0.1979 -1.6757,1.82325 -0.73439,3.65681 -1.56669,3.31458 8.06076,3.31458 8.46667,0 8.46667,0 8.46667,1.17592 0,0.64676 -0.0732,1.24911 -0.16262,1.338549 -0.0894,0.0894 -3.93545,-0.27142 -8.5467,-0.80191 -4.61124,-0.53049 -8.40867,-0.934399 -8.43873,-0.897579 -0.14584,0.1787 -0.84362,3.890819 -0.84362,4.48799 0,0.65383 0.36964,0.686039 8.90764,0.776389 8.90764,0.0943 8.90764,0.0943 9.01862,1.4422 0.11098,1.347951 0.11098,1.347951 -1.41111,1.1383 -0.83715,-0.115309 -4.37959,-0.522169 -7.87209,-0.904129 -3.4925,-0.38196 -6.92141,-0.78505 -7.61979,-0.89575 -1.26979,-0.20127 -1.26979,-0.20127 -1.67569,1.81988 -0.81327,4.04954 -1.76359,3.66736 9.11909,3.66736 9.525,0 9.525,0 9.525,1.23472 0,0.9528 -0.14467,1.23472 -0.63361,1.23472 -0.73739,0 -15.5148,-1.66637 -17.39312,-1.961331 -1.26979,-0.199399 -1.26979,-0.199399 -1.6757,1.821751 -0.81454,4.05591 -1.83675,3.66736 9.64826,3.66736 10.05417,0 10.05417,0 10.05417,1.175919 0,0.646771 -0.0724,1.248331 -0.16087,1.33681 -0.0885,0.0885 -4.64998,-0.35065 -10.13666,-0.975839 -5.48669,-0.6252 -10.0048,-1.10769 -10.04025,-1.072221 -0.0354,0.0355 -0.29633,1.29251 -0.57972,2.79342 -0.51525,2.72892 -0.51525,2.72892 10.11293,2.82222 10.62818,0.0933 10.62818,0.0933 10.73767,1.416221 0.0659,0.795749 -0.0457,1.32291 -0.27987,1.32291 -0.44651,0 -18.30585,-2.01526 -19.99961,-2.256771 -1.0656,-0.15194 -1.13136,-0.0924 -1.35393,1.22493 -0.23393,1.38462 -0.23393,1.38462 -6.20014,1.38462 -3.28142,0 -5.96327,-0.11906 -5.95967,-0.26458 0.004,-0.14552 0.53828,-3.32052 1.18818,-7.05556 1.18163,-6.79097 1.18163,-6.79097 -3.45785,-6.79097 -4.63949,0 -4.63949,0 -5.83321,7.05556 -1.19373,7.05555 -1.19373,7.05555 -7.13203,7.05555 -5.43005,0 -5.93612,-0.0528 -5.91282,-0.61736 z m 56.77174,-19.31458 c 0,-19.93194 0,-19.93194 6.37648,-19.93194 6.37649,0 6.37649,0 6.16371,3.0868 -0.32853,4.765991 -0.8981,15.962851 -0.89832,17.65971 -1.1e-4,0.836071 0.11886,1.446391 0.26438,1.356281 0.14552,-0.0901 2.09021,-5.098661 4.32153,-11.13009 4.05694,-10.966241 4.05694,-10.966241 8.73125,-10.969471 4.6743,-0.003 4.6743,-0.003 4.6743,11.10927 0,6.836171 0.12985,11.112491 0.33743,11.112491 0.35559,0 0.5347,-0.53756 4.61356,-13.84652 2.56778,-8.378471 2.56778,-8.378471 8.82462,-8.378471 7.08304,0 7.39625,-3.47235 -2.41833,26.8111 -4.17311,12.87639 -4.17311,12.87639 -12.17492,12.97121 -8.0018,0.0948 -8.0018,0.0948 -8.0018,-7.349539 0,-5.720461 -0.10015,-7.410971 -0.43246,-7.300201 -0.23784,0.0793 -1.61144,3.42626 -3.05242,7.43773 -2.61997,7.29358 -2.61997,7.29358 -9.97449,7.29358 -7.35452,0 -7.35452,0 -7.35452,-19.93194 z M 42.889243,54.667535 c -5.820833,-0.63494 -10.980208,-1.22872 -11.465277,-1.3195 -0.48507,-0.0908 4.766909,-0.18668 11.671064,-0.21311 6.904155,-0.0264 12.627532,0.0265 12.718615,0.11757 0.09108,0.0911 0.100173,0.72608 0.0202,1.41111 -0.17748,1.52024 0.953125,1.51989 -12.944602,0.004 z m 49.03611,0.008 c -5.820833,-0.63922 -10.980208,-1.2365 -11.465278,-1.32728 -0.485069,-0.0908 4.80295,-0.18668 11.751158,-0.21311 12.633107,-0.048 12.633107,-0.048 12.523617,1.27488 -0.099,1.19642 -0.21069,1.32793 -1.16783,1.37532 -0.58208,0.0288 -5.820834,-0.47058 -11.641667,-1.10981 z m -46.390276,-6.04519 c -5.917848,-0.63431 -11.235973,-1.21505 -11.818056,-1.29053 -0.582083,-0.0755 4.45426,-0.16264 11.191875,-0.19369 12.250208,-0.0565 12.250208,-0.0565 12.035988,1.09007 -0.117821,0.63059 -0.312289,1.236731 -0.432153,1.34698 -0.119863,0.11026 -5.059808,-0.31852 -10.977654,-0.95283 z m 49.036109,-7.1e-4 c -5.917847,-0.63392 -11.235972,-1.21433 -11.818055,-1.28982 -0.582083,-0.0755 4.426352,-0.16263 11.129856,-0.19368 12.188193,-0.0565 12.188193,-0.0565 12.043663,1.18152 -0.0795,0.6809 -0.24605,1.28672 -0.37013,1.34628 -0.12409,0.0596 -5.06749,-0.41038 -10.985334,-1.0443 z M 45.00591,42.328655 c -10.230556,-1.15336 -10.230556,-1.15336 1.537049,-1.19479 10.596157,-0.0373 11.746287,0.0141 11.553471,0.5166 -0.117772,0.30691 -0.214132,0.86253 -0.214132,1.23472 0,0.88196 -0.189301,0.87377 -12.876388,-0.55653 z m 1.5875,-6.02259 c -5.917847,-0.64894 -11.156597,-1.24244 -11.641667,-1.3189 -0.485069,-0.0765 4.810353,-0.16279 11.767604,-0.19187 11.403316,-0.0476 12.628453,0.002 12.435417,0.50517 -0.117773,0.30691 -0.214132,0.94191 -0.214132,1.41111 0,1.03759 1.160275,1.0757 -12.347222,-0.40551 z m 1.058333,-6.1729 c -11.818055,-1.30581 -11.818055,-1.30581 0.432153,-1.34688 12.250208,-0.0411 12.250208,-0.0411 12.035987,1.10546 -0.117821,0.63059 -0.312288,1.23669 -0.432152,1.34688 -0.119863,0.1102 -5.536058,-0.38726 -12.035988,-1.10546 z m 95.250007,0 c -11.81806,-1.30581 -11.81806,-1.30581 0.43215,-1.34688 12.25021,-0.0411 12.25021,-0.0411 12.03599,1.10546 -0.11782,0.63059 -0.31229,1.23669 -0.43215,1.34688 -0.11986,0.1102 -5.53606,-0.38726 -12.03599,-1.10546 z m -94.72084,-6.15491 c -10.230556,-1.14767 -10.230556,-1.14767 1.537048,-1.18896 10.596122,-0.0372 11.746287,0.0143 11.553473,0.51673 -0.117775,0.30691 -0.214133,0.86253 -0.214133,1.23472 0,0.87495 -0.103,0.87044 -12.876388,-0.56249 z m 0.705555,-6.12539 c -11.641666,-1.27847 -11.641666,-1.27847 0.847973,-1.37124 6.869302,-0.051 12.539721,-0.0427 12.600932,0.0185 0.06121,0.0612 0.01605,0.69827 -0.10038,1.41569 -0.170021,1.04771 -0.358785,1.29564 -0.959266,1.25995 -0.411177,-0.0245 -5.986342,-0.61976 -12.389259,-1.32292 z m 146.931955,0.1088 c -5.91785,-0.64604 -11.1566,-1.23837 -11.64167,-1.31629 -0.48507,-0.0779 4.71399,-0.16544 11.55347,-0.19451 12.43542,-0.0529 12.43542,-0.0529 12.43542,0.80023 0,1.28287 -0.36144,1.97397 -1.00788,1.92716 -0.31879,-0.0231 -5.4215,-0.57054 -11.33934,-1.21659 z M 57.402457,9.746715 c -0.964623,-1.00685 -0.964623,-1.00685 -0.853205,-34.484032 0.111137,-33.392864 0.113368,-33.482952 0.885809,-35.770233 1.451124,-4.296936 5.030625,-9.054041 9.055029,-12.034002 1.375847,-1.01877 1.375847,-1.01877 102.86999,-1.01877 101.49414,0 101.49414,0 102.86999,1.00339 2.34816,1.71249 6.42224,6.288577 7.5001,8.424269 2.46674,4.887648 2.30826,2.325046 2.43642,39.395346 0.11573,33.477182 0.11573,33.477182 -0.84889,34.484032 -0.94101,0.9822 -1.05536,1.00684 -4.67168,1.00684 -3.54236,0 -3.75101,-0.0421 -4.6965,-0.94794 -0.89425,-0.85675 -0.98944,-1.17888 -0.98944,-3.3483995 0,-2.40046 0,-2.40046 -19.47971,-2.49164 -19.47971,-0.0912 -19.47971,-0.0912 -24.54197,-6.0884 -2.78425,-3.29848 -5.48806,-6.52068 -6.00849,-7.16045 -0.94622,-1.1632305 -0.94622,-1.1632305 -3.23927,-0.62258 -3.02335,0.71284 -10.35968,0.71811 -13.36533,0.01 -3.77576,-0.8900405 -7.44288,-3.0519805 -10.72044,-6.3202075 -3.27246,-3.263149 -5.20512,-6.273578 -6.35263,-9.895261 -1.05739,-3.33725 -1.13001,-11.881665 -0.12893,-15.169444 2.11952,-6.960937 8.45175,-13.681569 15.1429,-16.071712 1.77042,-0.632411 3.2088,-0.816332 7.43241,-0.950363 3.25526,-0.1033 6.0588,-0.0095 7.40834,0.247968 6.73647,1.284993 14.26004,7.72754 16.9109,14.481051 1.2065,3.073781 1.66567,5.802355 1.65832,9.854374 -0.0106,5.875976 -1.71323,11.228761 -4.70275,14.785252 -0.70859,0.842976 -1.28835,1.615549 -1.28835,1.716824 0,0.101279 1.90968,2.467508 4.24374,5.258288 4.24374,5.0741605 4.24374,5.0741605 20.64686,5.0741605 16.40313,0 16.40313,0 16.30557,-24.2971205 -0.0976,-24.297121 -0.0976,-24.297121 -1.50867,-27.065012 -1.58802,-3.114908 -3.51307,-4.85867 -6.87917,-6.23135 -1.94027,-0.791238 -1.94027,-0.791238 -46.47847,-0.886033 -44.53819,-0.0948 -44.53819,-0.0948 -44.53687,14.993055 0.001,15.08785 0.001,15.08785 1.64169,15.762569 2.28329,0.939165 6.10152,4.645992 7.56436,7.343666 1.19957,2.21217 1.19957,2.21217 1.19957,7.509919 0,5.253916 -0.009,5.316851 -1.13624,7.607126 -1.42235,2.8908705 -4.88793,6.3131505 -7.75188,7.6550105 -1.93356,0.90595 -2.33378,0.95956 -7.16326,0.95956 -4.94112,0 -5.18688,-0.0352 -7.21837,-1.03259 -2.75558,-1.35296 -6.44747,-5.04485 -7.80043,-7.8004305 -0.99743,-2.031488 -1.03259,-2.277254 -1.03259,-7.218369 0,-4.941115 0.0352,-5.186881 1.03259,-7.21837 1.33298,-2.714889 5.04857,-6.450418 7.71223,-7.753632 2.0149,-0.985795 2.0149,-0.985795 2.0149,-15.937451 0,-14.951657 0,-14.951657 -11.81806,-14.951657 -11.81805,0 -11.81805,0 -11.81805,19.566769 0,19.56677 0,19.56677 -6.4304,24.959028 -3.53671,2.965742 -6.73555,5.643209 -7.10852,5.949925 -0.65678,0.54011 -0.65981,0.648656 -0.096,3.446747 1.60081,7.9446605 -0.0318,16.3398605 -4.01875,20.6652 -1.4862,1.61233 -1.4862,1.61233 -5.5671,1.61233 -3.94807,0 -4.11312,-0.0309 -5.07035,-0.94795 -0.83656,-0.80147 -0.98944,-1.23239 -0.98944,-2.7888395 0,-1.60433 0.16578,-2.03787 1.29006,-3.37358 1.76982,-2.10268 3.33976,-5.68665 3.56132,-8.13007 0.23306,-2.57016 -0.83054,-6.0401005 -2.66689,-8.7006105 -1.57932,-2.288133 -4.65079,-4.268271 -8.04641,-5.18742 -2.824514,-0.764561 -5.031802,-0.431221 -8.534162,1.288807 -2.900864,1.424633 -4.310825,2.881757 -5.900135,6.097513 -1.688778,3.4170105 -1.957309,6.1713305 -0.895981,9.1900605 0.785985,2.23557 2.413674,4.99435 3.557333,6.02935 0.542714,0.49115 0.701524,1.08672 0.701524,2.63086 0,1.7263695 -0.13365,2.1240295 -0.989443,2.9439295 -0.957584,0.91743 -1.121234,0.94795 -5.082586,0.94795 -4.093143,0 -4.093143,0 -5.681606,-1.76675 -3.196106,-3.5548395 -4.718526,-9.1547195 -4.36306,-16.0485295 0.354298,-6.8711855 2.152604,-10.8904145 7.119204,-15.9115075 2.650828,-2.679908 3.673016,-3.447669 6.175269,-4.638206 4.089985,-1.945961 6.074801,-2.348674 11.465277,-2.326273 6.655016,0.02766 10.299836,1.153644 14.642606,4.523525 1.9426,1.507409 1.9426,1.507409 6.96736,-2.712653 5.02476,-4.220062 5.02476,-4.220062 5.02476,-20.769833 0,-16.549772 0,-16.549772 -23.03283,-16.549772 -25.296533,0 -25.303211,3.53e-4 -29.052117,2.145401 -2.284507,1.307062 -3.447782,2.652109 -4.856794,5.61571 -1.090206,2.293055 -1.090206,2.293055 -1.185742,34.210222 -0.09554,31.917166 -0.09554,31.917166 -1.215732,33.072916 -1.120193,1.15575 -1.120193,1.15575 -4.689158,1.15575 -3.46445,0 -3.597207,-0.0295 -4.533582,-1.00685 z M 168.33778,-15.440702 c 0.65928,-0.436841 1.57005,-1.542552 2.02394,-2.457136 0.82524,-1.662874 0.82524,-1.662874 -0.0391,-3.550908 -0.76052,-1.661214 -1.08581,-1.983297 -2.70761,-2.680974 -1.84324,-0.792943 -1.84324,-0.792943 -3.47031,0.02364 -2.18832,1.098251 -3.07486,2.383706 -3.07486,4.458424 0,3.876276 4.14556,6.275872 7.26797,4.206952 z m 46.70263,-5.877175 c 4.32231,-1.519171 6.93352,-4.14159 8.6373,-8.674396 0.99301,-2.641844 1.01403,-5.045883 0.0674,-7.70763 -1.70794,-4.80229 -4.66998,-7.581473 -9.71275,-9.113167 -2.11968,-0.643837 -2.72743,-0.693985 -4.47399,-0.369178 -5.92394,1.101672 -9.97844,4.891718 -11.51977,10.768396 -0.51114,1.948815 -0.54447,2.638499 -0.20561,4.254059 0.92219,4.396525 3.34144,7.877775 6.72952,9.683598 4.16782,2.221428 6.6671,2.49772 10.47793,1.158318 z"
       id="path2447" />
  </g>
</svg>
